HIERARCHY
ROOT hip
{
  OFFSET 0 0 0
  CHANNELS 6 Xposition Yposition Zposition Zrotation Yrotation Xrotation
  JOINT abdomen
  {
    OFFSET 0 20.6881 -0.73152
    CHANNELS 3 Zrotation Xrotation Yrotation
    JOINT chest
    {
      OFFSET 0 11.7043 -0.48768
      CHANNELS 3 Zrotation Xrotation Yrotation
      JOINT neck
      {
        OFFSET 0 22.1894 -2.19456
        CHANNELS 3 Zrotation Xrotation Yrotation
        JOINT head
        {
          OFFSET -0.24384 7.07133 1.2192
          CHANNELS 3 Zrotation Xrotation Yrotation
          JOINT leftEye
          {
            OFFSET 4.14528 8.04674 8.04672
            CHANNELS 3 Zrotation Xrotation Yrotation
            End Site
            {
              OFFSET 1 0 0
            }
          }
          JOINT rightEye
          {
            OFFSET -3.6576 8.04674 8.04672
            CHANNELS 3 Zrotation Xrotation Yrotation
            End Site
            {
              OFFSET 1 0 0
            }
          }
        }
      }
      JOINT rCollar
      {
        OFFSET -2.68224 19.2634 -4.8768
        CHANNELS 3 Zrotation Xrotation Yrotation
        JOINT rShldr
        {
          OFFSET -8.77824 -1.95073 1.46304
          CHANNELS 3 Zrotation Xrotation Yrotation
          JOINT rForeArm
          {
            OFFSET -28.1742 -1.7115 0.48768
            CHANNELS 3 Zrotation Xrotation Yrotation
            JOINT rHand
            {
              OFFSET -22.5879 0.773209 7.07136
              CHANNELS 3 Zrotation Xrotation Yrotation
              JOINT rThumb1
              {
                OFFSET -1.2192 -0.487915 3.41376
                CHANNELS 3 Zrotation Xrotation Yrotation
                JOINT rThumb2
                {
                  OFFSET -3.37035 -0.52449 3.41376
                  CHANNELS 3 Zrotation Xrotation Yrotation
                  End Site
                  {
                    OFFSET -1.78271 -1.18214 1.43049
                  }
                }
              }
              JOINT rIndex1
              {
                OFFSET -7.75947 0.938293 5.60832
                CHANNELS 3 Zrotation Xrotation Yrotation
                JOINT rIndex2
                {
                  OFFSET -2.54057 -0.884171 1.56538
                  CHANNELS 3 Zrotation Xrotation Yrotation
                  End Site
                  {
                    OFFSET -1.62519 -0.234802 1.16502
                  }
                }
              }
              JOINT rMid1
              {
                OFFSET -8.24714 1.18213 3.41376
                CHANNELS 3 Zrotation Xrotation Yrotation
                JOINT rMid2
                {
                  OFFSET -3.10165 -0.590103 1.0647
                  CHANNELS 3 Zrotation Xrotation Yrotation
                  End Site
                  {
                    OFFSET -2.48547 -0.328903 0.83742
                  }
                }
              }
              JOINT rRing1
              {
                OFFSET -8.82822 0.546677 1.51678
                CHANNELS 3 Zrotation Xrotation Yrotation
                JOINT rRing2
                {
                  OFFSET -2.60934 -0.819778 -0.0198488
                  CHANNELS 3 Zrotation Xrotation Yrotation
                  End Site
                  {
                    OFFSET -2.33842 -0.294052 0.168128
                  }
                }
              }
              JOINT rPinky1
              {
                OFFSET -8.27202 -0.0477905 -0.4584
                CHANNELS 3 Zrotation Xrotation Yrotation
                JOINT rPinky2
                {
                  OFFSET -1.82734 -0.647385 -0.700984
                  CHANNELS 3 Zrotation Xrotation Yrotation
                  End Site
                  {
                    OFFSET -1.69225 -0.51767 -0.607171
                  }
                }
              }
            }
          }
        }
      }
      JOINT lCollar
      {
        OFFSET 2.68224 19.2634 -4.8768
        CHANNELS 3 Zrotation Xrotation Yrotation
        JOINT lShldr
        {
          OFFSET 8.77824 -1.95073 1.46304
          CHANNELS 3 Zrotation Xrotation Yrotation
          JOINT lForeArm
          {
            OFFSET 28.1742 -1.7115 0.48768
            CHANNELS 3 Zrotation Xrotation Yrotation
            JOINT lHand
            {
              OFFSET 22.5879 0.773209 7.07136
              CHANNELS 3 Zrotation Xrotation Yrotation
              JOINT lThumb1
              {
                OFFSET 1.2192 -0.487915 3.41376
                CHANNELS 3 Zrotation Xrotation Yrotation
                JOINT lThumb2
                {
                  OFFSET 3.37035 -0.52449 3.41376
                  CHANNELS 3 Zrotation Xrotation Yrotation
                  End Site
                  {
                    OFFSET 1.78271 -1.18214 1.43049
                  }
                }
              }
              JOINT lIndex1
              {
                OFFSET 7.75947 0.938293 5.60832
                CHANNELS 3 Zrotation Xrotation Yrotation
                JOINT lIndex2
                {
                  OFFSET 2.54057 -0.884171 1.56538
                  CHANNELS 3 Zrotation Xrotation Yrotation
                  End Site
                  {
                    OFFSET 1.62519 -0.234802 1.16502
                  }
                }
              }
              JOINT lMid1
              {
                OFFSET 8.24714 1.18213 3.41376
                CHANNELS 3 Zrotation Xrotation Yrotation
                JOINT lMid2
                {
                  OFFSET 3.10165 -0.590103 1.0647
                  CHANNELS 3 Zrotation Xrotation Yrotation
                  End Site
                  {
                    OFFSET 2.48547 -0.328903 0.83742
                  }
                }
              }
              JOINT lRing1
              {
                OFFSET 8.82822 0.546677 1.51678
                CHANNELS 3 Zrotation Xrotation Yrotation
                JOINT lRing2
                {
                  OFFSET 2.60934 -0.819778 -0.0198488
                  CHANNELS 3 Zrotation Xrotation Yrotation
                  End Site
                  {
                    OFFSET 2.33842 -0.294052 0.168128
                  }
                }
              }
              JOINT lPinky1
              {
                OFFSET 8.27202 -0.0477905 -0.4584
                CHANNELS 3 Zrotation Xrotation Yrotation
                JOINT lPinky2
                {
                  OFFSET 1.82734 -0.647385 -0.700984
                  CHANNELS 3 Zrotation Xrotation Yrotation
                  End Site
                  {
                    OFFSET 1.69225 -0.51767 -0.607171
                  }
                }
              }
            }
          }
        }
      }
    }
  }
  JOINT rButtock
  {
    OFFSET -8.77824 4.35084 1.2192
    CHANNELS 3 Zrotation Xrotation Yrotation
    JOINT rThigh
    {
      OFFSET 0 -1.70687 -2.19456
      CHANNELS 3 Zrotation Xrotation Yrotation
      JOINT rShin
      {
        OFFSET 0 -36.8199 0.73152
        CHANNELS 3 Zrotation Xrotation Yrotation
        JOINT rFoot
        {
          OFFSET 0.73152 -45.1104 -5.12064
          CHANNELS 3 Zrotation Xrotation Yrotation
          End Site
          {
            OFFSET -1.1221 -3.69964 12.103
          }
        }
      }
    }
  }
  JOINT lButtock
  {
    OFFSET 8.77824 4.35084 1.2192
    CHANNELS 3 Zrotation Xrotation Yrotation
    JOINT lThigh
    {
      OFFSET 0 -1.70687 -2.19456
      CHANNELS 3 Zrotation Xrotation Yrotation
      JOINT lShin
      {
        OFFSET 0 -36.8199 0.73152
        CHANNELS 3 Zrotation Xrotation Yrotation
        JOINT lFoot
        {
          OFFSET -0.73152 -45.1104 -5.12064
          CHANNELS 3 Zrotation Xrotation Yrotation
          End Site
          {
            OFFSET 1.1221 -3.69964 12.103
          }
        }
      }
    }
  }
}
MOTION
Frames:	4
Frame Time:	0.00833333
45.5394 79.2326 -100.09 -1.383 73.7156 4.7199 9.79692 26.216 -8.90711 3.99437 -6.4597 -1.36665 3.64767 10.7469 -6.6985 -9.97831 -33.4436 -17.0037 -0.0 0.0 0.0 -0.0 0.0 0.0 -1.49353e-13 -1.59024e-13 2.4547e-13 66.7995 42.5827 -8.86941 -15.8956 -8.59025 29.4539 -0.190137 12.2636 1.75101 -9.56617e-10 1.19625e-10 2.26727e-09 -1.63332e-09 2.06554e-10 3.93233e-09 -9.56616e-10 1.19633e-10 2.26726e-09 7.73091 5.47488 0.417314 -9.56619e-10 1.19629e-10 2.26727e-09 2.90554 0.965183 0.102902 -9.56608e-10 1.19629e-10 2.26727e-09 10.2786 0.731801 0.0259123 -9.56619e-10 1.19627e-10 2.26727e-09 2.22167 -0.733487 -0.20892 -1.49495e-13 -1.5902e-13 2.45135e-13 -68.0556 42.0288 4.35771 24.0832 -19.2569 -49.8726 0.122836 9.93627 -1.4108 1.5973e-10 -1.1907e-09 5.16153e-10 2.76407e-10 -2.06102e-09 8.92923e-10 1.59727e-10 -1.1907e-09 5.16151e-10 -7.73091 5.47488 -0.417314 1.59731e-10 -1.1907e-09 5.16154e-10 -2.90554 0.965183 -0.102902 1.59721e-10 -1.1907e-09 5.16153e-10 -10.2786 0.731801 -0.0259123 1.59736e-10 -1.1907e-09 5.16147e-10 -2.22167 -0.733487 0.20892 -2.03217e-16 0.0 -3.88251e-19 8.6335 -30.1495 9.35947 -0.375823 41.4293 0.670021 0.0435866 -14.4032 1.19601 2.03217e-16 0.0 3.88251e-19 16.6584 -30.9449 6.47285 1.29221 62.8997 -1.64677 -6.82069 -3.14736 -34.2116
46.2406 79.2672 -99.7943 -1.3645 72.639 4.8099 9.59908 26.2989 -7.83388 3.82852 -6.56325 -1.09347 3.84475 10.7772 -6.70238 -10.4796 -33.2913 -17.162 -0.0 0.0 0.0 -0.0 0.0 0.0 -1.17595e-13 8.7947e-15 1.33931e-13 65.4449 42.9477 -7.46663 -16.0858 -8.76393 29.8628 -0.192831 12.3199 1.75948 -2.09336e-10 1.09761e-10 1.43641e-09 -3.49783e-10 1.91126e-10 2.48641e-09 -2.09336e-10 1.09768e-10 1.4364e-09 7.73091 5.47488 0.417314 -2.0934e-10 1.09765e-10 1.43641e-09 2.90554 0.965183 0.102902 -2.09327e-10 1.09766e-10 1.43641e-09 10.2786 0.731801 0.0259123 -2.09339e-10 1.09764e-10 1.43641e-09 2.22167 -0.733487 -0.20892 -1.17768e-13 8.79695e-15 1.33611e-13 -70.3292 42.6528 6.22959 23.6411 -18.4481 -48.4686 0.121633 9.88893 -1.40394 3.29631e-10 -6.75493e-10 3.6875e-10 5.7101e-10 -1.16933e-09 6.36316e-10 3.29628e-10 -6.75492e-10 3.6875e-10 -7.73091 5.47488 -0.417314 3.29632e-10 -6.75494e-10 3.68746e-10 -2.90554 0.965183 -0.102902 3.29622e-10 -6.75493e-10 3.68748e-10 -10.2786 0.731801 -0.0259123 3.29636e-10 -6.7549e-10 3.68743e-10 -2.22167 -0.733487 0.20892 -2.03217e-16 0.0 -3.88251e-19 8.91059 -29.5522 10.0061 -0.371129 41.2234 0.667587 0.192433 -14.6971 1.60666 2.03217e-16 0.0 3.88251e-19 16.6243 -31.8044 7.14162 1.2739 62.5545 -1.59189 -7.20622 -3.85061 -33.9753
46.9404 79.3273 -99.4975 -1.3268 71.5342 4.932 9.33714 26.3758 -6.73475 3.64122 -6.68056 -0.819437 4.03815 10.7914 -6.70392 -10.9358 -33.1046 -17.2975 -0.0 0.0 0.0 -0.0 0.0 0.0 -6.59596e-14 2.18731e-13 -1.74635e-14 64.1295 43.3058 -6.12712 -16.3351 -8.99788 30.3947 -0.185902 12.1196 1.72986 6.33597e-10 9.1709e-11 4.28904e-10 1.09791e-09 1.61919e-10 7.34028e-10 6.33598e-10 9.17144e-11 4.28894e-10 7.73091 5.47488 0.417314 6.33592e-10 9.1713e-11 4.28904e-10 2.90554 0.965183 0.102902 6.33606e-10 9.17146e-11 4.289e-10 10.2786 0.731801 0.0259123 6.33593e-10 9.17115e-11 4.28902e-10 2.22167 -0.733487 -0.20892 -6.6162e-14 2.1873e-13 -1.77707e-14 -72.6248 43.2398 8.19859 23.1936 -17.6678 -47.1193 0.119555 9.80915 -1.39236 5.07481e-10 -6.5493e-11 1.53698e-10 8.79278e-10 -1.13595e-10 2.62597e-10 5.07479e-10 -6.549e-11 1.53702e-10 -7.73091 5.47488 -0.417314 5.07481e-10 -6.54929e-11 1.5369e-10 -2.90554 0.965183 -0.102902 5.07472e-10 -6.54918e-11 1.53695e-10 -10.2786 0.731801 -0.0259123 5.07484e-10 -6.54896e-11 1.53692e-10 -2.22167 -0.733487 0.20892 -2.03217e-16 0.0 -3.88251e-19 9.15291 -28.9159 10.689 -0.364815 40.9314 0.662517 0.336548 -14.9521 2.00086 2.03217e-16 0.0 3.88251e-19 16.5281 -32.6079 7.73793 1.23789 61.9711 -1.52179 -7.56163 -4.57004 -33.6953
47.6369 79.4125 -99.1986 -1.2958 70.4152 5.067 9.05414 26.4285 -5.65087 3.42387 -6.79103 -0.554373 4.21967 10.7793 -6.70392 -11.3249 -32.8995 -17.4073 -0.0 0.0 0.0 -0.0 0.0 0.0 -3.09766e-15 3.95978e-13 -1.62059e-13 62.8639 43.6593 -4.84665 -16.642 -9.29755 31.0399 -0.169872 11.6656 1.66277 1.04869e-09 2.93693e-11 -2.48086e-10 1.80943e-09 5.49186e-11 -4.41867e-10 1.04869e-09 2.93736e-11 -2.48096e-10 7.73091 5.47488 0.417314 1.04868e-09 2.93735e-11 -2.48086e-10 2.90554 0.965183 0.102902 1.0487e-09 2.93754e-11 -2.48092e-10 10.2786 0.731801 0.0259123 1.04868e-09 2.9372e-11 -2.4809e-10 2.22167 -0.733487 -0.20892 -3.31335e-15 3.95978e-13 -1.62357e-13 -74.901 43.7877 10.2499 22.7583 -16.9399 -45.8914 0.119028 9.79062 -1.38967 4.19917e-10 2.70784e-10 -1.58551e-11 7.28337e-10 4.68582e-10 -3.04769e-11 4.19916e-10 2.70789e-10 -1.58487e-11 -7.73091 5.47488 -0.417314 4.19916e-10 2.70785e-10 -1.58646e-11 -2.90554 0.965183 -0.102902 4.19908e-10 2.70786e-10 -1.58582e-11 -10.2786 0.731801 -0.0259123 4.19919e-10 2.70788e-10 -1.58614e-11 -2.22167 -0.733487 0.20892 -2.03217e-16 0.0 -3.88251e-19 9.37547 -28.2352 11.4019 -0.356763 40.5391 0.653639 0.468519 -15.1643 2.35863 2.03217e-16 0.0 3.88251e-19 16.3869 -33.3623 8.20543 1.1868 61.182 -1.43943 -7.88024 -5.29137 -33.3686
